<svg width="100" height="100" viewBox="0 0 100 100" fill="none" xmlns="http://www.w3.org/2000/svg">
<rect width="100" height="100" rx="50" fill="black"/>
<path d="M17.608 42.228V47.86H31.952C34.4747 47.86 35.736 46.9213 35.736 45.044V45C35.736 43.152 34.4747 42.228 31.952 42.228H17.608ZM17.608 55.78V67H5.112V34.264H34.856C44.0373 34.264 48.628 37.0653 48.628 42.668V43.152C48.628 44.2667 48.408 45.2787 47.968 46.188C47.528 47.0973 46.9413 47.8307 46.208 48.388C45.504 48.9453 44.8 49.3853 44.096 49.708C43.4213 50.0307 42.732 50.28 42.028 50.456C44.1107 50.9253 45.7533 51.8347 46.956 53.184C48.1587 54.504 48.76 56.1907 48.76 58.244V63.084C48.76 64.7853 48.9653 66.0173 49.376 66.78V67H36.616C36.352 66.7067 36.22 66.1347 36.22 65.284V61.456C36.22 59.52 35.7067 58.0973 34.68 57.188C33.6827 56.2493 31.9813 55.78 29.576 55.78H17.608ZM52.2058 67V34.264H83.0058C87.4058 34.264 90.5151 34.968 92.3338 36.376C94.1818 37.7547 95.1058 39.5293 95.1058 41.7V42.184C95.1058 44.0027 94.5191 45.4547 93.3458 46.54C92.1724 47.596 90.8818 48.2853 89.4738 48.608C90.3538 48.8133 91.1604 49.092 91.8938 49.444C92.6564 49.796 93.4484 50.28 94.2698 50.896C95.1204 51.512 95.7804 52.348 96.2498 53.404C96.7484 54.46 96.9978 55.6627 96.9978 57.012V57.54C96.9978 63.8467 92.3924 67 83.1818 67H52.2058ZM79.2218 41.7H64.7018V46.32H79.2218C81.4511 46.32 82.5658 45.5573 82.5658 44.032V43.944C82.5658 42.448 81.4511 41.7 79.2218 41.7ZM80.0138 53.668H64.7018V59.3H80.0138C82.5951 59.3 83.8858 58.3613 83.8858 56.484V56.352C83.8858 54.5627 82.5951 53.668 80.0138 53.668Z" fill="white"/>
</svg>
